<?xml version="1.0" encoding="UTF-8"?>
<svg version="1.1" xmlns="http://www.w3.org/2000/svg" width="97" height="97">
<path d="M0 0 C11.60540231 7.54965657 19.17101573 18.00241511 22.33203125 31.4921875 C23.97869966 48.1697033 21.22747845 61.39366225 10.66015625 74.578125 C2.62096447 83.54491584 -9.35808698 88.72815465 -21.23828125 89.703125 C-34.79386583 90.20518369 -47.25669834 85.67841301 -57.35546875 76.6171875 C-67.91957615 65.46301284 -71.194364 51.960722 -70.94140625 37.078125 C-70.4324311 24.79720979 -64.29379709 13.64149765 -55.54296875 5.1796875 C-40.18809564 -7.66449208 -17.39881609 -9.83300587 0 0 Z " fill="#B10B12" transform="translate(72.66796875,6.5078125)"/>
<path d="M0 0 C0.66 0 1.32 0 2 0 C2.66 2.31 3.32 4.62 4 7 C4.763125 6.814375 5.52625 6.62875 6.3125 6.4375 C9 6 9 6 12 7 C13.56118428 7.06740865 15.1250252 7.08514456 16.6875 7.0625 C17.49574219 7.05347656 18.30398437 7.04445313 19.13671875 7.03515625 C19.75160156 7.02355469 20.36648437 7.01195312 21 7 C21 7.33 21 7.66 21 8 C18.69 8 16.38 8 14 8 C14 8.66 14 9.32 14 10 C16.97 10 19.94 10 23 10 C23 10.33 23 10.66 23 11 C19.04 11 15.08 11 11 11 C11 10.34 11 9.68 11 9 C10.01 9.33 9.02 9.66 8 10 C12.08933306 12.72622204 15.89265995 13.38315274 20.75 12.5 C21.4925 12.335 22.235 12.17 23 12 C23.99 12.33 24.98 12.66 26 13 C26 14.65 26 16.3 26 18 C26.66 18 27.32 18 28 18 C28 18.66 28 19.32 28 20 C28.60328125 19.94199219 29.2065625 19.88398438 29.828125 19.82421875 C36.37447093 19.45466696 36.37447093 19.45466696 39.4375 22.125 C42.88303753 28.46478905 43.26319194 33.81658098 43.125 40.875 C43.11597656 41.75414062 43.10695312 42.63328125 43.09765625 43.5390625 C43.07424577 45.6928271 43.0383801 47.84645014 43 50 C41.68 50 40.36 50 39 50 C38.7215625 51.2375 38.7215625 51.2375 38.4375 52.5 C36.51131879 57.18983252 33.45957895 60.35541683 30 64 C34.70076289 61.15767825 37.60476104 58.31287111 41 54 C41.98290968 52.98319689 42.97334787 51.97261781 44 51 C44.33 51.33 44.66 51.66 45 52 C45.66 51.34 46.32 50.68 47 50 C46.60409533 56.33447473 42.04030793 61.01483553 37.6875 65.25 C28.25673779 71.39096144 28.25673779 71.39096144 23.72265625 70.60546875 C23.15417969 70.40566406 22.58570313 70.20585938 22 70 C24.475 69.01 24.475 69.01 27 68 C24.36 68.33 21.72 68.66 19 69 C18.67 70.32 18.34 71.64 18 73 C16.515 72.505 16.515 72.505 15 72 C15 71.01 15 70.02 15 69 C12.36 68.67 9.72 68.34 7 68 C9.31 68.66 11.62 69.32 14 70 C13.67 70.66 13.34 71.32 13 72 C11.72125 71.71125 10.4425 71.4225 9.125 71.125 C8.40570313 70.96257812 7.68640625 70.80015625 6.9453125 70.6328125 C5 70 5 70 3 68 C3.19207031 67.37867187 3.38414063 66.75734375 3.58203125 66.1171875 C3.71996094 65.41851562 3.85789062 64.71984375 4 64 C2.65060953 61.97361415 2.65060953 61.97361415 0.6875 60.125 C-2.41348435 56.84629125 -3.63176557 54.31520088 -5 50 C-7.0109552 49.30046844 -7.0109552 49.30046844 -9 49 C-9.05425013 46.12474331 -9.09379277 43.25052354 -9.125 40.375 C-9.14175781 39.56675781 -9.15851562 38.75851563 -9.17578125 37.92578125 C-9.23460787 30.69010655 -8.12083866 25.43119252 -3 20 C-2.01 19.67 -1.02 19.34 0 19 C0 18.01 0 17.02 0 16 C0.99 15.67 1.98 15.34 3 15 C3.33 16.65 3.66 18.3 4 20 C4.66 20 5.32 20 6 20 C6 19.01 6 18.02 6 17 C6.33 16.67 6.66 16.34 7 16 C6.16666667 13.83333333 6.16666667 13.83333333 4 13 C0.09161134 13 -1.11594107 14.50567876 -4 17 C-4.66 16.67 -5.32 16.34 -6 16 C-6 15.34 -6 14.68 -6 14 C-7.29572383 11.97543152 -8.6273318 9.97321053 -10 8 C-9.67 7.34 -9.34 6.68 -9 6 C-8.38125 6.825 -7.7625 7.65 -7.125 8.5 C-6.42375 9.325 -5.7225 10.15 -5 11 C-4.34 11 -3.68 11 -3 11 C-3.57452746 7.06924356 -3.57452746 7.06924356 -6 4 C-4.125 4.125 -4.125 4.125 -2 5 C-0.75 8.0625 -0.75 8.0625 0 11 C0.99 10.34 1.98 9.68 3 9 C2.01 6.03 1.02 3.06 0 0 Z " fill="#ECB641" transform="translate(32,8)"/>
<path d="M0 0 C0.66 0 1.32 0 2 0 C2.66 2.31 3.32 4.62 4 7 C4.763125 6.814375 5.52625 6.62875 6.3125 6.4375 C9 6 9 6 12 7 C13.56118428 7.06740865 15.1250252 7.08514456 16.6875 7.0625 C17.49574219 7.05347656 18.30398437 7.04445313 19.13671875 7.03515625 C19.75160156 7.02355469 20.36648437 7.01195312 21 7 C21 7.33 21 7.66 21 8 C18.69 8 16.38 8 14 8 C14 8.66 14 9.32 14 10 C16.97 10 19.94 10 23 10 C23 10.33 23 10.66 23 11 C19.04 11 15.08 11 11 11 C11 10.34 11 9.68 11 9 C10.01 9.33 9.02 9.66 8 10 C10.91765 11.9451 12.62537285 12.45276317 16 13 C16 13.99 16 14.98 16 16 C17.32 15.67 18.64 15.34 20 15 C20.33 15.99 20.66 16.98 21 18 C21.33 17.01 21.66 16.02 22 15 C22.495 17.475 22.495 17.475 23 20 C22.01 20.495 22.01 20.495 21 21 C21 20.34 21 19.68 21 19 C20.34 19.33 19.68 19.66 19 20 C19 21.32 19 22.64 19 24 C19.66 23.649375 20.32 23.29875 21 22.9375 C25.0513091 21.67146591 27.83374555 22.29385518 32 23 C31.34 23.66 30.68 24.32 30 25 C30.515625 25.391875 31.03125 25.78375 31.5625 26.1875 C32.036875 26.785625 32.51125 27.38375 33 28 C32.6875 30.6875 32.6875 30.6875 32 33 C31.01 32.505 31.01 32.505 30 32 C30.33 30.68 30.66 29.36 31 28 C27.87525373 29.63473516 27.87525373 29.63473516 27.3125 32.125 C27.209375 32.74375 27.10625 33.3625 27 34 C26.34 34 25.68 34 25 34 C25 33.34 25 32.68 25 32 C24.34 32 23.68 32 23 32 C23 33.65 23 35.3 23 37 C22.34 37 21.68 37 21 37 C21 35.35 21 33.7 21 32 C21.639375 31.71125 22.27875 31.4225 22.9375 31.125 C25.15206079 30.17176549 25.15206079 30.17176549 26 28 C23.6921509 26.84607545 21.52769669 26.46562834 19 26 C18.67 26.99 18.34 27.98 18 29 C11.125 26.125 11.125 26.125 10 25 C6.88214887 25.64644661 6.88214887 25.64644661 6 28 C7.32 27.67 8.64 27.34 10 27 C9.67 27.99 9.34 28.98 9 30 C10.32 30.33 11.64 30.66 13 31 C13.33 32.65 13.66 34.3 14 36 C13.34 36 12.68 36 12 36 C12 34.68 12 33.36 12 32 C10.68 32.66 9.36 33.32 8 34 C8.53625 34.9075 9.0725 35.815 9.625 36.75 C11 40 11 40 10.1875 42.375 C9.795625 42.91125 9.40375 43.4475 9 44 C7.35 42.02 5.7 40.04 4 38 C3.01 40.31 2.02 42.62 1 45 C1.99 45 2.98 45 4 45 C3.34 44.67 2.68 44.34 2 44 C2 43.34 2 42.68 2 42 C3.32 42.33 4.64 42.66 6 43 C6 44.65 6 46.3 6 48 C-0.15234375 47.4140625 -0.15234375 47.4140625 -2 47 C-2.33 46.34 -2.66 45.68 -3 45 C-2.34 44.34 -1.68 43.68 -1 43 C-1 42.34 -1 41.68 -1 41 C-2.32 40.34 -3.64 39.68 -5 39 C-4.67 38.34 -4.34 37.68 -4 37 C-2.68 37 -1.36 37 0 37 C-0.7734375 36.4740625 -0.7734375 36.4740625 -1.5625 35.9375 C-3 34 -3 34 -2.9375 30.5625 C-1.92077418 26.69894188 -1.29130321 25.22385352 2 23 C5.25 22.75 5.25 22.75 8 23 C7.34 22.34 6.68 21.68 6 21 C6 17 6 17 7 16 C6.16666667 13.83333333 6.16666667 13.83333333 4 13 C0.09161134 13 -1.11594107 14.50567876 -4 17 C-4.66 16.67 -5.32 16.34 -6 16 C-6 15.34 -6 14.68 -6 14 C-7.29572383 11.97543152 -8.6273318 9.97321053 -10 8 C-9.67 7.34 -9.34 6.68 -9 6 C-8.38125 6.825 -7.7625 7.65 -7.125 8.5 C-6.42375 9.325 -5.7225 10.15 -5 11 C-4.34 11 -3.68 11 -3 11 C-3.57452746 7.06924356 -3.57452746 7.06924356 -6 4 C-4.125 4.125 -4.125 4.125 -2 5 C-0.75 8.0625 -0.75 8.0625 0 11 C0.99 10.34 1.98 9.68 3 9 C2.01 6.03 1.02 3.06 0 0 Z " fill="#DD8D36" transform="translate(32,8)"/>
<path d="M0 0 C1 1 1 1 1.0625 3.5625 C1.041875 4.366875 1.02125 5.17125 1 6 C1.66 6 2.32 6 3 6 C3 6.66 3 7.32 3 8 C3.60328125 7.94199219 4.2065625 7.88398438 4.828125 7.82421875 C11.37447093 7.45466696 11.37447093 7.45466696 14.4375 10.125 C17.88303753 16.46478905 18.26319194 21.81658098 18.125 28.875 C18.11597656 29.75414063 18.10695313 30.63328125 18.09765625 31.5390625 C18.07424577 33.6928271 18.0383801 35.84645014 18 38 C16.68 38 15.36 38 14 38 C13.814375 38.825 13.62875 39.65 13.4375 40.5 C11.43070388 45.3861123 7.84999012 50.57500494 3 53 C-3.47058824 53.35294118 -3.47058824 53.35294118 -7 51 C-7.1875 47.875 -7.1875 47.875 -7 45 C-4.525 44.505 -4.525 44.505 -2 44 C-1.34 41.69 -0.68 39.38 0 37 C0.99 37 1.98 37 3 37 C2.67 36.67 2.34 36.34 2 36 C1.52475248 28.63366337 1.52475248 28.63366337 3.5 26 C3.995 25.67 4.49 25.34 5 25 C5.33 25.99 5.66 26.98 6 28 C6.66 28 7.32 28 8 28 C8 29.65 8 31.3 8 33 C7.01 33 6.02 33 5 33 C4.67 32.34 4.34 31.68 4 31 C4.33 32.32 4.66 33.64 5 35 C7.97 34.505 7.97 34.505 11 34 C10.34 32.02 9.68 30.04 9 28 C9.99 28 10.98 28 12 28 C10.68 27.01 9.36 26.02 8 25 C8.99 24.67 9.98 24.34 11 24 C11 21.69 11 19.38 11 17 C10.34 18.98 9.68 20.96 9 23 C7.02 23 5.04 23 3 23 C2.67 21.35 2.34 19.7 2 18 C3.32 17.34 4.64 16.68 6 16 C6.33 17.32 6.66 18.64 7 20 C7 18.02 7 16.04 7 14 C6.01 13.67 5.02 13.34 4 13 C3.67 12.34 3.34 11.68 3 11 C-1.455 11.495 -1.455 11.495 -6 12 C-6.33 10.35 -6.66 8.7 -7 7 C-5.68 7.33 -4.36 7.66 -3 8 C-3 6.68 -3 5.36 -3 4 C-3.33 4.66 -3.66 5.32 -4 6 C-4.99 5.67 -5.98 5.34 -7 5 C-6.34 5 -5.68 5 -5 5 C-5 4.34 -5 3.68 -5 3 C-6.32 3.33 -7.64 3.66 -9 4 C-9 3.34 -9 2.68 -9 2 C-5.55892734 -0.29404844 -4.03160191 -0.26293056 0 0 Z " fill="#F8E276" transform="translate(57,20)"/>
<path d="M0 0 C3.625 0.375 3.625 0.375 7 1 C7.625 3.875 7.625 3.875 8 7 C5.64046906 9.35953094 4.22104383 9.49141413 1 10 C3.68841859 12.25245881 5.64641875 13.88213958 9 15 C8.690625 15.928125 8.690625 15.928125 8.375 16.875 C8.25125 17.57625 8.1275 18.2775 8 19 C8.66 19.66 9.32 20.32 10 21 C10.66 20.01 11.32 19.02 12 18 C15 17.6875 15 17.6875 18 18 C20 20 20 20 20.125 22.625 C20.08375 23.40875 20.0425 24.1925 20 25 C19.7525 24.360625 19.505 23.72125 19.25 23.0625 C18.19184556 20.83668483 18.19184556 20.83668483 16 20.25 C14.00516811 19.95865509 14.00516811 19.95865509 12 20 C12.66 22.31 13.32 24.62 14 27 C13.34 27 12.68 27 12 27 C11.67 27.66 11.34 28.32 11 29 C14.63 29 18.26 29 22 29 C22 30.98 22 32.96 22 35 C21.505 33.02 21.505 33.02 21 31 C20.01 31 19.02 31 18 31 C18 32.32 18 33.64 18 35 C17.34 34.67 16.68 34.34 16 34 C16.33 33.01 16.66 32.02 17 31 C16.01 31 15.02 31 14 31 C14 32.65 14 34.3 14 36 C13.01 36.495 13.01 36.495 12 37 C11.31527335 38.88764903 11.31527335 38.88764903 10.875 41.0625 C10.70742187 41.79597656 10.53984375 42.52945313 10.3671875 43.28515625 C10.24601562 43.85105469 10.12484375 44.41695312 10 45 C9.34 45 8.68 45 8 45 C7.34 46.32 6.68 47.64 6 49 C5.67 48.34 5.34 47.68 5 47 C4.505 47.845625 4.01 48.69125 3.5 49.5625 C0.47974203 54.09288695 -3.95035129 59.05227931 -9.25 60.69921875 C-10.11625 60.84810547 -10.11625 60.84810547 -11 61 C-10.2575 60.278125 -9.515 59.55625 -8.75 58.8125 C-3.89160206 53.89000915 -3.89160206 53.89000915 -0.9375 47.75 C-0.628125 46.8425 -0.31875 45.935 0 45 C1.485 44.505 1.485 44.505 3 44 C3.66 44.33 4.32 44.66 5 45 C4.94782273 41.62377072 4.85267982 38.25004113 4.75 34.875 C4.73582031 33.92367187 4.72164062 32.97234375 4.70703125 31.9921875 C4.49807292 25.97418749 3.77680438 22.6990473 0 18 C-0.33 17.01 -0.66 16.02 -1 15 C-1.99 15.33 -2.98 15.66 -4 16 C-5.39439664 16.06665376 -6.79169875 16.08538199 -8.1875 16.0625 C-10.0746875 16.0315625 -10.0746875 16.0315625 -12 16 C-11.34 15.67 -10.68 15.34 -10 15 C-10 14.34 -10 13.68 -10 13 C-10.66 13 -11.32 13 -12 13 C-12.625 9.625 -12.625 9.625 -13 6 C-12.34 5.34 -11.68 4.68 -11 4 C-7.62008426 4.3557806 -4.95711562 5.35715799 -2 7 C-2.04125 6.21625 -2.0825 5.4325 -2.125 4.625 C-2 2 -2 2 0 0 Z " fill="#B5191B" transform="translate(70,13)"/>
<path d="M0 0 C0.66 0.33 1.32 0.66 2 1 C1.74438677 3.3431213 1.40729228 5.67843403 1 8 C0.34 8.33 -0.32 8.66 -1 9 C0.32 9.99 1.64 10.98 3 12 C2.34 12.33 1.68 12.66 1 13 C0.34 12.67 -0.32 12.34 -1 12 C-0.65555119 14.47266765 -0.65555119 14.47266765 0 17 C0.66 17.33 1.32 17.66 2 18 C-4.75 20.125 -4.75 20.125 -7 19 C-6.67 17.35 -6.34 15.7 -6 14 C-5.01 14.33 -4.02 14.66 -3 15 C-3.66 15 -4.32 15 -5 15 C-5 15.66 -5 16.32 -5 17 C-4.01 17 -3.02 17 -2 17 C-2 15.35 -2 13.7 -2 12 C-2.66 12 -3.32 12 -4 12 C-4.33 11.34 -4.66 10.68 -5 10 C-7.18331689 11.76136355 -7.18331689 11.76136355 -7.1953125 13.9453125 C-7.17210938 14.66460937 -7.14890625 15.38390625 -7.125 16.125 C-7.08375 17.40375 -7.0425 18.6825 -7 20 C-4.525 20.99 -4.525 20.99 -2 22 C-2 22.33 -2 22.66 -2 23 C-4.64 22.67 -7.28 22.34 -10 22 C-10.144375 22.61875 -10.28875 23.2375 -10.4375 23.875 C-11 26 -11 26 -12 28 C-14.0625 28.625 -14.0625 28.625 -16 29 C-15.95875 30.0725 -15.9175 31.145 -15.875 32.25 C-15.9885825 35.65747485 -16.21273364 37.20739631 -18 40 C-20.22923777 35.67265609 -19.92470553 32.71599818 -19 28 C-19.2475 28.969375 -19.495 29.93875 -19.75 30.9375 C-20.1625 31.948125 -20.575 32.95875 -21 34 C-23.125 34.875 -23.125 34.875 -25 35 C-25 33.35 -25 31.7 -25 30 C-25.66 30.99 -26.32 31.98 -27 33 C-28.65 32.67 -30.3 32.34 -32 32 C-30.68 31.67 -29.36 31.34 -28 31 C-28 30.01 -28 29.02 -28 28 C-29.65 28 -31.3 28 -33 28 C-33 27.34 -33 26.68 -33 26 C-33.99 25.67 -34.98 25.34 -36 25 C-34 24 -34 24 -32.0546875 24.55859375 C-31.33539063 24.84863281 -30.61609375 25.13867188 -29.875 25.4375 C-28.78832031 25.86869141 -28.78832031 25.86869141 -27.6796875 26.30859375 C-27.12539063 26.53675781 -26.57109375 26.76492187 -26 27 C-26 25.35 -26 23.7 -26 22 C-28.31 22.33 -30.62 22.66 -33 23 C-30 21 -30 21 -28 21 C-27.67 20.01 -27.34 19.02 -27 18 C-25.68 18 -24.36 18 -23 18 C-22.67 18.66 -22.34 19.32 -22 20 C-21.236875 19.814375 -20.47375 19.62875 -19.6875 19.4375 C-17 19 -17 19 -14 20 C-13.01 20 -12.02 20 -11 20 C-11.20496094 19.44828125 -11.40992187 18.8965625 -11.62109375 18.328125 C-12.12113992 15.25567639 -11.29298564 13.58384572 -10.0625 10.75 C-9.68222656 9.85796875 -9.30195312 8.9659375 -8.91015625 8.046875 C-8.60980469 7.37140625 -8.30945313 6.6959375 -8 6 C-5.69 6 -3.38 6 -1 6 C-0.67 4.02 -0.34 2.04 0 0 Z " fill="#C4452D" transform="translate(67,36)"/>
<path d="M0 0 C3.24271506 0.5590888 4.93057424 1.4132178 7 4 C7 4.66 7 5.32 7 6 C8.65 6 10.3 6 12 6 C12 6.99 12 7.98 12 9 C11.01 9.495 11.01 9.495 10 10 C12.88214887 9.11785113 12.88214887 9.11785113 15 8 C15.33 9.32 15.66 10.64 16 12 C16.99 11.67 17.98 11.34 19 11 C19.73323796 8.98491642 19.73323796 8.98491642 20 7 C19.01 6.67 18.02 6.34 17 6 C18.32 6 19.64 6 21 6 C21.79953138 9.28696233 22.09658936 10.71023192 21 14 C21.33 14.66 21.66 15.32 22 16 C22.33 15.34 22.66 14.68 23 14 C23.70125 14.14179687 24.4025 14.28359375 25.125 14.4296875 C30.87085168 15.36317603 30.87085168 15.36317603 36.37109375 13.90625 C40.19266694 11.0743848 43.19358983 7.84582134 46 4 C46.98230498 2.9826127 47.97469597 1.97403883 49 1 C49.495 1.495 49.495 1.495 50 2 C50.66 1.34 51.32 0.68 52 0 C51.60409533 6.33447473 47.04030793 11.01483553 42.6875 15.25 C33.25673779 21.39096144 33.25673779 21.39096144 28.72265625 20.60546875 C28.15417969 20.40566406 27.58570312 20.20585938 27 20 C28.65 19.34 30.3 18.68 32 18 C28.04 18.495 28.04 18.495 24 19 C23.67 20.32 23.34 21.64 23 23 C22.01 22.67 21.02 22.34 20 22 C20 21.01 20 20.02 20 19 C17.36 18.67 14.72 18.34 12 18 C14.31 18.66 16.62 19.32 19 20 C18.67 20.66 18.34 21.32 18 22 C16.72125 21.71125 15.4425 21.4225 14.125 21.125 C13.40570313 20.96257812 12.68640625 20.80015625 11.9453125 20.6328125 C10 20 10 20 8 18 C8.19207031 17.37867187 8.38414063 16.75734375 8.58203125 16.1171875 C8.71996094 15.41851562 8.85789062 14.71984375 9 14 C7.65060953 11.97361415 7.65060953 11.97361415 5.6875 10.125 C2.6630625 6.90776967 0.98944867 4.39754966 0 0 Z " fill="#E7AA41" transform="translate(27,58)"/>
<path d="M0 0 C0.66 0.33 1.32 0.66 2 1 C2.99 1.33 3.98 1.66 5 2 C5 2.66 5 3.32 5 4 C5.99 4 6.98 4 8 4 C8.33 3.34 8.66 2.68 9 2 C12.3 2 15.6 2 19 2 C18.34 2.66 17.68 3.32 17 4 C16.01 5.485 16.01 5.485 15 7 C14.01 7.33 13.02 7.66 12 8 C11.67 9.65 11.34 11.3 11 13 C11.66 13 12.32 13 13 13 C13 11.35 13 9.7 13 8 C13.66 8 14.32 8 15 8 C15 8.66 15 9.32 15 10 C15.66 10 16.32 10 17 10 C16.50230217 12.8202877 15.86151878 15.4072977 14.9375 18.125 C13.8449897 20.97136615 13.8449897 20.97136615 14 24 C12.35 24.33 10.7 24.66 9 25 C9 22 9 22 11 19 C9.96939453 18.99613281 9.96939453 18.99613281 8.91796875 18.9921875 C6.16573326 18.87406581 3.67525681 18.66666367 1 18 C-1.1875 15.1875 -1.1875 15.1875 -2 12 C-1.6875 9.625 -1.6875 9.625 -1 8 C-0.01 8 0.98 8 2 8 C2 9.32 2 10.64 2 12 C2.66 12 3.32 12 4 12 C3.67 10.35 3.34 8.7 3 7 C2.360625 6.87625 1.72125 6.7525 1.0625 6.625 C0.381875 6.41875 -0.29875 6.2125 -1 6 C-1.33 5.34 -1.66 4.68 -2 4 C-2.66 4 -3.32 4 -4 4 C-3.67 3.01 -3.34 2.02 -3 1 C-2.01 0.67 -1.02 0.34 0 0 Z " fill="#F1C95A" transform="translate(42,32)"/>
<path d="M0 0 C0.66 0.33 1.32 0.66 2 1 C2 1.66 2 2.32 2 3 C2.66 3 3.32 3 4 3 C4 4.65 4 6.3 4 8 C3.01 8 2.02 8 1 8 C0.67 7.34 0.34 6.68 0 6 C0.33 7.32 0.66 8.64 1 10 C2.65 10 4.3 10 6 10 C6 10.99 6 11.98 6 13 C7.32 13 8.64 13 10 13 C8.65670996 18.97017797 5.25361253 22.796548 1 27 C-2.01868434 28.50934217 -4.67297229 28.17510672 -8 28 C-8.99 27.34 -9.98 26.68 -11 26 C-11.1875 22.875 -11.1875 22.875 -11 20 C-9.35 19.67 -7.7 19.34 -6 19 C-5.01 15.535 -5.01 15.535 -4 12 C-3.01 12 -2.02 12 -1 12 C-1.33 11.67 -1.66 11.34 -2 11 C-2.36090226 3.54135338 -2.36090226 3.54135338 0 0 Z " fill="#E3A356" transform="translate(61,45)"/>
<path d="M0 0 C2.375 0.3125 2.375 0.3125 5 1 C5.66 1.99 6.32 2.98 7 4 C5.68 4 4.36 4 3 4 C2.67 3.67 2.34 3.34 2 3 C-1.11785113 3.64644661 -1.11785113 3.64644661 -2 6 C-0.68 5.67 0.64 5.34 2 5 C1.67 5.99 1.34 6.98 1 8 C2.32 8.33 3.64 8.66 5 9 C5.33 10.65 5.66 12.3 6 14 C5.34 14 4.68 14 4 14 C4 12.68 4 11.36 4 10 C2.02 10.99 2.02 10.99 0 12 C0.53625 12.9075 1.0725 13.815 1.625 14.75 C3 18 3 18 2.1875 20.375 C1.795625 20.91125 1.40375 21.4475 1 22 C-0.65 20.02 -2.3 18.04 -4 16 C-4.99 18.31 -5.98 20.62 -7 23 C-6.01 23 -5.02 23 -4 23 C-4.66 22.67 -5.32 22.34 -6 22 C-6 21.34 -6 20.68 -6 20 C-4.68 20.33 -3.36 20.66 -2 21 C-2 22.65 -2 24.3 -2 26 C-8.15234375 25.4140625 -8.15234375 25.4140625 -10 25 C-10.33 24.34 -10.66 23.68 -11 23 C-10.34 22.34 -9.68 21.68 -9 21 C-9 20.34 -9 19.68 -9 19 C-10.32 18.34 -11.64 17.68 -13 17 C-12.67 16.34 -12.34 15.68 -12 15 C-10.68 15 -9.36 15 -8 15 C-8.515625 14.649375 -9.03125 14.29875 -9.5625 13.9375 C-11 12 -11 12 -10.9375 8.5625 C-9.92077418 4.69894188 -9.29130321 3.22385352 -6 1 C-2.75 0.75 -2.75 0.75 0 1 C0 0.67 0 0.34 0 0 Z " fill="#DD8A35" transform="translate(40,30)"/>
<path d="M0 0 C0.99 0 1.98 0 3 0 C4.15650011 3.46950032 3.99338114 6.03741477 3.875 9.6875 C3.84527922 19.32694025 5.83547346 24.23992911 12.28125 31.3359375 C14.09997583 33.19682406 14.09997583 33.19682406 17 35 C17 36.32 17 37.64 17 39 C12.25 37.125 12.25 37.125 10 36 C10 35.34 10 34.68 10 34 C9.34 34 8.68 34 8 34 C8 33.34 8 32.68 8 32 C7.34 32 6.68 32 6 32 C4.78125 30.35546875 4.78125 30.35546875 3.5 28.1875 C3.0771875 27.47980469 2.654375 26.77210937 2.21875 26.04296875 C1.8165625 25.36878906 1.414375 24.69460937 1 24 C0.34 23.01 -0.32 22.02 -1 21 C-1.66 21 -2.32 21 -3 21 C-3.33 21.99 -3.66 22.98 -4 24 C-4.99 24 -5.98 24 -7 24 C-7.33 22.68 -7.66 21.36 -8 20 C-7.34 20 -6.68 20 -6 20 C-5.67 19.34 -5.34 18.68 -5 18 C-3.68 18.33 -2.36 18.66 -1 19 C-1.66 16.36 -2.32 13.72 -3 11 C-3.928125 11.061875 -4.85625 11.12375 -5.8125 11.1875 C-9 11 -9 11 -10.9375 9.8125 C-12 8 -12 8 -11.6875 5.3125 C-11.460625 4.549375 -11.23375 3.78625 -11 3 C-10.34 3.33 -9.68 3.66 -9 4 C-9.33 5.65 -9.66 7.3 -10 9 C-7.69 9 -5.38 9 -3 9 C-3 7.68 -3 6.36 -3 5 C-3.99 5 -4.98 5 -6 5 C-6 4.34 -6 3.68 -6 3 C-5.195625 2.87625 -4.39125 2.7525 -3.5625 2.625 C-2.716875 2.41875 -1.87125 2.2125 -1 2 C-0.67 1.34 -0.34 0.68 0 0 Z " fill="#C23E1E" transform="translate(18,37)"/>
<path d="M0 0 C3.625 0.375 3.625 0.375 7 1 C7.625 3.875 7.625 3.875 8 7 C5.64046906 9.35953094 4.22104383 9.49141413 1 10 C3.68841859 12.25245881 5.64641875 13.88213958 9 15 C8.01 16.32 7.02 17.64 6 19 C5.34 18.34 4.68 17.68 4 17 C3.01 17 2.02 17 1 17 C0.278125 16.835 -0.44375 16.67 -1.1875 16.5 C-4.84622111 15.84956069 -8.28499753 15.93703386 -12 16 C-11.34 15.67 -10.68 15.34 -10 15 C-10 14.34 -10 13.68 -10 13 C-10.66 13 -11.32 13 -12 13 C-12.625 9.625 -12.625 9.625 -13 6 C-12.34 5.34 -11.68 4.68 -11 4 C-7.62008426 4.3557806 -4.95711562 5.35715799 -2 7 C-2.04125 6.21625 -2.0825 5.4325 -2.125 4.625 C-2 2 -2 2 0 0 Z " fill="#C74D2C" transform="translate(70,13)"/>
<path d="M0 0 C2 2 4 4 6 6 C6.33 5.67 6.66 5.34 7 5 C8.85287502 4.92773498 10.70833878 4.9161878 12.5625 4.9375 C13.57441406 4.94652344 14.58632813 4.95554687 15.62890625 4.96484375 C16.80259766 4.98224609 16.80259766 4.98224609 18 5 C16.32482761 8.53647504 15.50719183 9.7911563 11.8125 11.3125 C10.4203125 11.6528125 10.4203125 11.6528125 9 12 C8.67 11.01 8.34 10.02 8 9 C4.73045798 9.56371414 3.17424117 10.49962266 1 13 C2.32 12.67 3.64 12.34 5 12 C5.98120464 15.05263664 5.98120464 16.94736336 5 20 C4.67 19.34 4.34 18.68 4 18 C1.88672575 17.09274566 1.88672575 17.09274566 -0.5625 16.375 C-1.38878906 16.11460938 -2.21507812 15.85421875 -3.06640625 15.5859375 C-3.70449219 15.39257812 -4.34257812 15.19921875 -5 15 C-5 13.35 -5 11.7 -5 10 C-2.69 10.33 -0.38 10.66 2 11 C1.67 9.35 1.34 7.7 1 6 C0.67 6 0.34 6 0 6 C0 6.66 0 7.32 0 8 C-0.99 8 -1.98 8 -3 8 C-2.45276317 4.62537285 -1.9451 2.91765 0 0 Z " fill="#E9B145" transform="translate(36,45)"/>
<path d="M0 0 C1.32 0 2.64 0 4 0 C4.33 0.66 4.66 1.32 5 2 C6.65 1.67 8.3 1.34 10 1 C10.33 1.66 10.66 2.32 11 3 C9.02 3.99 7.04 4.98 5 6 C5.53625 6.53625 6.0725 7.0725 6.625 7.625 C8 10 8 10 7.4375 13.1875 C6 16 6 16 3.875 16.875 C3.25625 16.91625 2.6375 16.9575 2 17 C2 15.35 2 13.7 2 12 C1.01 13.485 1.01 13.485 0 15 C-1.65 14.67 -3.3 14.34 -5 14 C-3.68 13.67 -2.36 13.34 -1 13 C-1 12.01 -1 11.02 -1 10 C-2.65 10 -4.3 10 -6 10 C-6 9.34 -6 8.68 -6 8 C-6.99 7.67 -7.98 7.34 -9 7 C-7 6 -7 6 -5.0546875 6.55859375 C-4.33539063 6.84863281 -3.61609375 7.13867188 -2.875 7.4375 C-2.15054688 7.72496094 -1.42609375 8.01242188 -0.6796875 8.30859375 C-0.12539063 8.53675781 0.42890625 8.76492187 1 9 C1 7.35 1 5.7 1 4 C-1.31 4.33 -3.62 4.66 -6 5 C-3 3 -3 3 -1 3 C-0.67 2.01 -0.34 1.02 0 0 Z " fill="#C64B2A" transform="translate(40,54)"/>
<path d="M0 0 C3 -0.3125 3 -0.3125 6 0 C8 2 8 2 8.125 4.625 C8.08375 5.40875 8.0425 6.1925 8 7 C7.7525 6.360625 7.505 5.72125 7.25 5.0625 C6.19184556 2.83668483 6.19184556 2.83668483 4 2.25 C2.00516811 1.95865509 2.00516811 1.95865509 0 2 C0.66 4.31 1.32 6.62 2 9 C1.34 9 0.68 9 0 9 C-0.33 9.66 -0.66 10.32 -1 11 C2.63 11 6.26 11 10 11 C10 12.98 10 14.96 10 17 C9.67 15.68 9.34 14.36 9 13 C8.01 13 7.02 13 6 13 C6 14.32 6 15.64 6 17 C5.34 16.67 4.68 16.34 4 16 C4.33 15.01 4.66 14.02 5 13 C4.01 13 3.02 13 2 13 C2 14.65 2 16.3 2 18 C1.34 18.33 0.68 18.66 0 19 C-0.68472665 20.88764903 -0.68472665 20.88764903 -1.125 23.0625 C-1.29257813 23.79597656 -1.46015625 24.52945313 -1.6328125 25.28515625 C-1.75398438 25.85105469 -1.87515625 26.41695312 -2 27 C-3.60748002 22.07787125 -2.96891749 16.93037592 -2.83984375 11.82421875 C-3.00877047 7.79057836 -3.74443882 4.8060737 -5 1 C-3.515 1.99 -3.515 1.99 -2 3 C-1.34 2.01 -0.68 1.02 0 0 Z " fill="#D88B5A" transform="translate(82,31)"/>
<path d="M0 0 C1 3 1 3 -0.00390625 5.0859375 C-5.15710466 12.65429406 -10.95050034 18.4661401 -20 21 C-22.2734375 20.6015625 -22.2734375 20.6015625 -24 20 C-22.35 19.34 -20.7 18.68 -19 18 C-19 17.01 -19 16.02 -19 15 C-18.01 14.7215625 -18.01 14.7215625 -17 14.4375 C-11.05037426 11.58663767 -5.90020271 6.98166808 -3 1 C-2.34 1.33 -1.68 1.66 -1 2 C-0.67 1.34 -0.34 0.68 0 0 Z " fill="#C95A40" transform="translate(78,58)"/>
<path d="M0 0 C3 1 3 1 4 2 C4.36162029 3.32594105 4.69728039 4.65938457 5 6 C4.34 6 3.68 6 3 6 C3 6.99 3 7.98 3 9 C2.34 9 1.68 9 1 9 C0.34 7.68 -0.32 6.36 -1 5 C-1.66 5 -2.32 5 -3 5 C-2.67 6.32 -2.34 7.64 -2 9 C-6.455 10.485 -6.455 10.485 -11 12 C-11.33 11.67 -11.66 11.34 -12 11 C-12.53753906 10.56945313 -13.07507813 10.13890625 -13.62890625 9.6953125 C-14.26699219 9.17710938 -14.90507812 8.65890625 -15.5625 8.125 C-16.20316406 7.61195312 -16.84382813 7.09890625 -17.50390625 6.5703125 C-19 5 -19 5 -19 2 C-16.69 3.65 -14.38 5.3 -12 7 C-11.67 6.01 -11.34 5.02 -11 4 C-10.67 4.66 -10.34 5.32 -10 6 C-8.3603125 5.071875 -8.3603125 5.071875 -6.6875 4.125 C-6.07261719 3.77695312 -5.45773438 3.42890625 -4.82421875 3.0703125 C-3.18017711 2.10571419 -1.58599412 1.05732941 0 0 Z " fill="#BD2E1B" transform="translate(35,19)"/>
<path d="M0 0 C0.33 0.66 0.66 1.32 1 2 C1.33 1.34 1.66 0.68 2 0 C4.64 0.33 7.28 0.66 10 1 C9.67 1.99 9.34 2.98 9 4 C7.02 4.33 5.04 4.66 3 5 C2.67 6.32 2.34 7.64 2 9 C1.01 8.67 0.02 8.34 -1 8 C-1 7.01 -1 6.02 -1 5 C-3.64 4.67 -6.28 4.34 -9 4 C-6.69 4.66 -4.38 5.32 -2 6 C-2.33 6.66 -2.66 7.32 -3 8 C-4.27875 7.71125 -5.5575 7.4225 -6.875 7.125 C-7.59429687 6.96257812 -8.31359375 6.80015625 -9.0546875 6.6328125 C-11 6 -11 6 -13 4 C-12.67 3.01 -12.34 2.02 -12 1 C-10.37512529 0.83211627 -8.75009558 0.66573213 -7.125 0.5 C-6.22007813 0.4071875 -5.31515625 0.314375 -4.3828125 0.21875 C-2 0 -2 0 0 0 Z " fill="#E7AC55" transform="translate(48,72)"/>
<path d="M0 0 C0.66 0.33 1.32 0.66 2 1 C1.74438677 3.3431213 1.40729228 5.67843403 1 8 C0.01 8.495 0.01 8.495 -1 9 C0.32 9.99 1.64 10.98 3 12 C2.01 12.495 2.01 12.495 1 13 C0.34 12.67 -0.32 12.34 -1 12 C-0.65555119 14.47266765 -0.65555119 14.47266765 0 17 C0.66 17.33 1.32 17.66 2 18 C-4.75 20.125 -4.75 20.125 -7 19 C-6.67 17.35 -6.34 15.7 -6 14 C-5.01 14.33 -4.02 14.66 -3 15 C-3.66 15 -4.32 15 -5 15 C-5 15.66 -5 16.32 -5 17 C-4.01 17 -3.02 17 -2 17 C-2 15.35 -2 13.7 -2 12 C-2.66 12 -3.32 12 -4 12 C-4.33 11.34 -4.66 10.68 -5 10 C-6.32 11.32 -7.64 12.64 -9 14 C-9.66 13.67 -10.32 13.34 -11 13 C-10.01 10.69 -9.02 8.38 -8 6 C-5.69 6 -3.38 6 -1 6 C-0.67 4.02 -0.34 2.04 0 0 Z " fill="#BC2F24" transform="translate(67,36)"/>
<path d="M0 0 C0.66 0 1.32 0 2 0 C2 1.32 2 2.64 2 4 C3.32 3.67 4.64 3.34 6 3 C6.33 4.32 6.66 5.64 7 7 C7.1546875 6.0409375 7.1546875 6.0409375 7.3125 5.0625 C7.539375 4.381875 7.76625 3.70125 8 3 C8.99 2.67 9.98 2.34 11 2 C13.5 3.3125 13.5 3.3125 16 5 C18.8684413 7.10232344 18.8684413 7.10232344 22 8 C21.01 9.32 20.02 10.64 19 12 C18.34 11.34 17.68 10.68 17 10 C16.01 10 15.02 10 14 10 C13.278125 9.835 12.55625 9.67 11.8125 9.5 C8.15377889 8.84956069 4.71500247 8.93703386 1 9 C1.66 8.67 2.32 8.34 3 8 C3 7.34 3 6.68 3 6 C2.34 6 1.68 6 1 6 C0.67 4.02 0.34 2.04 0 0 Z " fill="#BB2A20" transform="translate(57,20)"/>
<path d="M0 0 C1.65 0 3.3 0 5 0 C3.63905758 5.14133803 0.46744266 8.31234335 -4 11 C-8.51491096 11.60198813 -10.19593784 11.53604144 -14 9 C-14.1875 5.875 -14.1875 5.875 -14 3 C-13.731875 3.639375 -13.46375 4.27875 -13.1875 4.9375 C-12.11332248 7.33131686 -12.11332248 7.33131686 -9 8 C-8.67 6.68 -8.34 5.36 -8 4 C-7.34 4.33 -6.68 4.66 -6 5 C-5.67 5 -5.34 5 -5 5 C-5 4.01 -5 3.02 -5 2 C-3.35 2 -1.7 2 0 2 C0 1.34 0 0.68 0 0 Z " fill="#EFC86C" transform="translate(64,62)"/>
<path d="M0 0 C1.9375 0.75 1.9375 0.75 3.9375 2.75 C4.33514263 4.73821313 4.67525349 6.73944339 4.9375 8.75 C3.48114629 8.97174933 2.02227044 9.17698698 0.5625 9.375 C-0.24960938 9.49101563 -1.06171875 9.60703125 -1.8984375 9.7265625 C-2.61257813 9.73429687 -3.32671875 9.74203125 -4.0625 9.75 C-4.7225 9.09 -5.3825 8.43 -6.0625 7.75 C-5.875 4.75 -5.875 4.75 -5.0625 1.75 C-2.0625 -0.25 -2.0625 -0.25 0 0 Z " fill="#C13E1A" transform="translate(15.0625,27.25)"/>
<path d="M0 0 C0.66 0.33 1.32 0.66 2 1 C1.9175 1.763125 1.835 2.52625 1.75 3.3125 C1.70833333 6.14583333 1.70833333 6.14583333 4 7.8125 C4.66 8.204375 5.32 8.59625 6 9 C5.01 11.97 4.02 14.94 3 18 C3.99 18 4.98 18 6 18 C5.34 17.67 4.68 17.34 4 17 C4 16.34 4 15.68 4 15 C5.32 15.33 6.64 15.66 8 16 C8 17.65 8 19.3 8 21 C1.84765625 20.4140625 1.84765625 20.4140625 0 20 C-0.33 19.34 -0.66 18.68 -1 18 C-0.34 17.34 0.32 16.68 1 16 C1 15.34 1 14.68 1 14 C-0.32 13.34 -1.64 12.68 -3 12 C-2.67 11.34 -2.34 10.68 -2 10 C-0.68 10 0.64 10 2 10 C1.484375 9.649375 0.96875 9.29875 0.4375 8.9375 C-1 7 -1 7 -0.6875 3.3125 C-0.3471875 1.6728125 -0.3471875 1.6728125 0 0 Z " fill="#BC2D1C" transform="translate(30,35)"/>
<path d="M0 0 C0.66 0 1.32 0 2 0 C2.95619733 3.99795892 3.1039592 7.70803922 3.0625 11.8125 C3.05347656 12.97394531 3.04445313 14.13539062 3.03515625 15.33203125 C3.02355469 16.21246094 3.01195313 17.09289062 3 18 C0.36 18 -2.28 18 -5 18 C-4.67 16.68 -4.34 15.36 -4 14 C-3.34 14 -2.68 14 -2 14 C-2 13.34 -2 12.68 -2 12 C-2.66 11.67 -3.32 11.34 -4 11 C-3.2884375 10.2265625 -3.2884375 10.2265625 -2.5625 9.4375 C-0.57190593 6.33217325 -0.34939182 3.63367496 0 0 Z " fill="#F7E37D" transform="translate(72,40)"/>
<path d="M0 0 C0.66 0 1.32 0 2 0 C2 0.99 2 1.98 2 3 C3.32 2.67 4.64 2.34 6 2 C5.67 2.99 5.34 3.98 5 5 C6.32 5.33 7.64 5.66 9 6 C9.33 7.65 9.66 9.3 10 11 C9.34 11 8.68 11 8 11 C8 9.68 8 8.36 8 7 C6.02 7.99 6.02 7.99 4 9 C4.53625 9.9075 5.0725 10.815 5.625 11.75 C7 15 7 15 6.1875 17.375 C5.795625 17.91125 5.40375 18.4475 5 19 C1.03062787 14.65849923 1.03062787 14.65849923 0.875 11.3125 C0.91625 10.549375 0.9575 9.78625 1 9 C0.34 8.34 -0.32 7.68 -1 7 C-0.01 6.34 0.98 5.68 2 5 C1.01 3.68 0.02 2.36 -1 1 C-0.67 0.67 -0.34 0.34 0 0 Z " fill="#D16932" transform="translate(36,33)"/>
<path d="M0 0 C1.37562854 1.28965176 2.70766393 2.62689293 4 4 C4 4.66 4 5.32 4 6 C3.34 6 2.68 6 2 6 C2.32484375 6.65742187 2.6496875 7.31484375 2.984375 7.9921875 C4.24906179 11.73760608 4.29266644 15.22102082 4.25 19.125 C4.25773437 19.84042969 4.26546875 20.55585937 4.2734375 21.29296875 C4.25933736 25.06475618 4.14079147 26.78881279 2 30 C1.9906543 29.39526855 1.98130859 28.79053711 1.97167969 28.16748047 C1.91768278 25.4025212 1.83409606 22.63920094 1.75 19.875 C1.73582031 18.92367187 1.72164063 17.97234375 1.70703125 16.9921875 C1.49933436 11.01051711 0.82469846 7.64004115 -3 3 C-3.33 2.34 -3.66 1.68 -4 1 C-2.68 1.33 -1.36 1.66 0 2 C0 1.34 0 0.68 0 0 Z " fill="#B10C14" transform="translate(73,28)"/>
<path d="M0 0 C0 0.66 0 1.32 0 2 C0.66 2.33 1.32 2.66 2 3 C-6.52443299 6.118695 -12.68104171 6.56526784 -21 3 C-20.34 2.34 -19.68 1.68 -19 1 C-18.01 1 -17.02 1 -16 1 C-16 1.66 -16 2.32 -16 3 C-15.01 2.67 -14.02 2.34 -13 2 C-13 1.34 -13 0.68 -13 0 C-8.34462607 -0.83796731 -4.62921525 -1.0161692 0 0 Z " fill="#BB281A" transform="translate(59,16)"/>
<path d="M0 0 C1.5625 1.25 1.5625 1.25 3 3 C2.6875 5.1875 2.6875 5.1875 2 7 C2 6.34 2 5.68 2 5 C1.34 5 0.68 5 0 5 C0.0928125 6.8871875 0.0928125 6.8871875 0.1875 8.8125 C0.20828778 12.74831894 0.20828778 12.74831894 -1.5 14.8125 C-1.995 15.204375 -2.49 15.59625 -3 16 C-3 16.99 -3 17.98 -3 19 C-3.66 18.67 -4.32 18.34 -5 18 C-5.625 15.4375 -5.625 15.4375 -6 13 C-5.01 13 -4.02 13 -3 13 C-4.32 12.01 -5.64 11.02 -7 10 C-6.01 9.67 -5.02 9.34 -4 9 C-3.26919734 7.02253397 -2.60578253 5.01927511 -2 3 C-1.34 2.01 -0.68 1.02 0 0 Z " fill="#F5DB77" transform="translate(72,35)"/>
<path d="M0 0 C1.65 0 3.3 0 5 0 C6.125 1.5625 6.125 1.5625 7 4 C6.125 7.75 6.125 7.75 5 11 C3.02 11 1.04 11 -1 11 C-1.33 9.35 -1.66 7.7 -2 6 C-0.68 5.34 0.64 4.68 2 4 C2.33 5.32 2.66 6.64 3 8 C3 6.02 3 4.04 3 2 C2.01 1.67 1.02 1.34 0 1 C0 0.67 0 0.34 0 0 Z " fill="#EDBF5F" transform="translate(61,32)"/>
<path d="M0 0 C0.66 0.33 1.32 0.66 2 1 C1.67 2.65 1.34 4.3 1 6 C3.31 6 5.62 6 8 6 C8 4.68 8 3.36 8 2 C7.01 2 6.02 2 5 2 C5 1.34 5 0.68 5 0 C6.98 0 8.96 0 11 0 C11 4.62 11 9.24 11 14 C10 12 9 10 8 8 C7.071875 8.061875 6.14375 8.12375 5.1875 8.1875 C2 8 2 8 0.0625 6.8125 C-1 5 -1 5 -0.6875 2.3125 C-0.460625 1.549375 -0.23375 0.78625 0 0 Z " fill="#CE6523" transform="translate(7,40)"/>
<path d="M0 0 C4.50046315 0.25002573 7.41788227 2.41754304 11 5 C9.68 5.33 8.36 5.66 7 6 C6.67 7.65 6.34 9.3 6 11 C5.01 10.01 4.02 9.02 3 8 C3.33 7.34 3.66 6.68 4 6 C2.68 6.33 1.36 6.66 0 7 C0 5.68 0 4.36 0 3 C-0.66 2.67 -1.32 2.34 -2 2 C-1.34 1.34 -0.68 0.68 0 0 Z " fill="#D06837" transform="translate(59,17)"/>
<path d="M0 0 C1.32 0 2.64 0 4 0 C4.88910615 2.90980194 5.22167778 4.45319482 4.0625 7.3125 C1.31324145 9.56189336 -0.60340828 9.4014506 -4.0625 9.3359375 C-6 9 -6 9 -9 7 C-9 6.34 -9 5.68 -9 5 C-7.35 4.67 -5.7 4.34 -4 4 C-4 3.34 -4 2.68 -4 2 C-3.34 2 -2.68 2 -2 2 C-1.67 3.32 -1.34 4.64 -1 6 C-0.01 5.67 0.98 5.34 2 5 C2.73323796 2.98491642 2.73323796 2.98491642 3 1 C2.01 0.67 1.02 0.34 0 0 Z " fill="#E9B44F" transform="translate(44,64)"/>
<path d="M0 0 C0.33 0.66 0.66 1.32 1 2 C2.32 1.67 3.64 1.34 5 1 C5.33 1.99 5.66 2.98 6 4 C6.33 3.01 6.66 2.02 7 1 C7.33 2.65 7.66 4.3 8 6 C7.01 6.495 7.01 6.495 6 7 C6 6.34 6 5.68 6 5 C5.01 5.495 5.01 5.495 4 6 C3.34786708 8.02463255 3.34786708 8.02463255 3 10 C2.34 10 1.68 10 1 10 C0.87625 9.360625 0.7525 8.72125 0.625 8.0625 C0.41875 7.381875 0.2125 6.70125 0 6 C-0.66 5.67 -1.32 5.34 -2 5 C-2.33 5.66 -2.66 6.32 -3 7 C-3.33 5.35 -3.66 3.7 -4 2 C-3.34 1.67 -2.68 1.34 -2 1 C-2 1.99 -2 2.98 -2 4 C-1.34 2.68 -0.68 1.36 0 0 Z " fill="#B82219" transform="translate(47,22)"/>
<path d="M0 0 C3.63 0 7.26 0 11 0 C9.32482761 3.53647504 8.50719183 4.7911563 4.8125 6.3125 C3.4203125 6.6528125 3.4203125 6.6528125 2 7 C1.67 6.01 1.34 5.02 1 4 C0.34 3.67 -0.32 3.34 -1 3 C-0.67 2.01 -0.34 1.02 0 0 Z " fill="#EFC258" transform="translate(43,50)"/>
<path d="M0 0 C0.99 0 1.98 0 3 0 C4.74923785 4.46055651 5.17732646 7.80005903 4.75 12.5625 C4.66234375 13.65691406 4.5746875 14.75132813 4.484375 15.87890625 C4.02069035 18.86668076 3.24610665 21.25754397 2 24 C0.56873003 19.70619009 0.95755315 15.45533223 1.0390625 10.98046875 C1.081555 7.17738996 0.92754578 3.69569023 0 0 Z " fill="#C44833" transform="translate(75,34)"/>
<path d="M0 0 C1.32 0.33 2.64 0.66 4 1 C4.33 2.98 4.66 4.96 5 7 C4.01 7 3.02 7 2 7 C2.33 5.68 2.66 4.36 3 3 C-0.12474627 4.63473516 -0.12474627 4.63473516 -0.6875 7.125 C-0.790625 7.74375 -0.89375 8.3625 -1 9 C-1.66 9 -2.32 9 -3 9 C-3 8.34 -3 7.68 -3 7 C-3.66 7 -4.32 7 -5 7 C-5 8.65 -5 10.3 -5 12 C-5.66 12 -6.32 12 -7 12 C-7 10.35 -7 8.7 -7 7 C-6.360625 6.71125 -5.72125 6.4225 -5.0625 6.125 C-2.84793921 5.17176549 -2.84793921 5.17176549 -2 3 C-2.66 2.67 -3.32 2.34 -4 2 C-2.68 1.67 -1.36 1.34 0 1 C0 0.67 0 0.34 0 0 Z " fill="#C03925" transform="translate(60,33)"/>
<path d="M0 0 C1 3 1 3 0.0625 5.3125 C-2.75386543 8.9823095 -6.21718617 11.38527595 -10 14 C-9.34002795 8.22524458 -6.08581816 4.88152725 -2 1 C-1.67 1.33 -1.34 1.66 -1 2 C-0.67 1.34 -0.34 0.68 0 0 Z " fill="#BD3329" transform="translate(78,58)"/>
<path d="M0 0 C0.763125 0.20625 1.52625 0.4125 2.3125 0.625 C2.6425 1.945 2.9725 3.265 3.3125 4.625 C0.5625 5.8125 0.5625 5.8125 -2.6875 6.625 C-5.0625 5.25 -5.0625 5.25 -6.6875 3.625 C-5.07944847 0.40889695 -3.54044012 -0.4940149 0 0 Z " fill="#EAB455" transform="translate(50.6875,57.375)"/>
<path d="M0 0 C0.66 0.33 1.32 0.66 2 1 C2 1.66 2 2.32 2 3 C2.66 3 3.32 3 4 3 C4 4.65 4 6.3 4 8 C3.01 8 2.02 8 1 8 C0.67 7.34 0.34 6.68 0 6 C0.19471111 7.94999129 0.19471111 7.94999129 1 10 C2.9837767 11.28436734 2.9837767 11.28436734 5 12 C2.625 12.625 2.625 12.625 0 13 C-2.60704898 10.39295102 -2.23905333 8.52661759 -2.265625 4.97265625 C-2 3 -2 3 0 0 Z " fill="#F3D473" transform="translate(61,45)"/>
<path d="M0 0 C1.32 0 2.64 0 4 0 C4.33 0.66 4.66 1.32 5 2 C6.65 1.67 8.3 1.34 10 1 C10.33 1.66 10.66 2.32 11 3 C7.04 4.98 7.04 4.98 3 7 C2.01 6.01 1.02 5.02 0 4 C-0.33 4.33 -0.66 4.66 -1 5 C-2.66617115 5.04063832 -4.33388095 5.042721 -6 5 C-3 3 -3 3 -1 3 C-0.67 2.01 -0.34 1.02 0 0 Z " fill="#BA271B" transform="translate(40,54)"/>
<path d="M0 0 C3 1 3 1 4 2 C4.36162029 3.32594105 4.69728039 4.65938457 5 6 C4.34 6 3.68 6 3 6 C3 6.99 3 7.98 3 9 C2.34 9 1.68 9 1 9 C0.34 7.68 -0.32 6.36 -1 5 C-2.98 5.33 -4.96 5.66 -7 6 C-2.25 1.125 -2.25 1.125 0 0 Z " fill="#B71E16" transform="translate(35,19)"/>
<path d="M0 0 C3.3 0 6.6 0 10 0 C10 0.66 10 1.32 10 2 C9.34 2 8.68 2 8 2 C7.67 2.66 7.34 3.32 7 4 C7.99 4.33 8.98 4.66 10 5 C9.67 5.66 9.34 6.32 9 7 C7.72125 6.71125 6.4425 6.4225 5.125 6.125 C4.40570313 5.96257812 3.68640625 5.80015625 2.9453125 5.6328125 C1 5 1 5 -1 3 C-0.67 2.01 -0.34 1.02 0 0 Z " fill="#D16A35" transform="translate(36,73)"/>
<path d="M0 0 C2.03833424 1.2739589 4.03852126 2.61061923 6 4 C6.99 4.33 7.98 4.66 9 5 C8.01 6.32 7.02 7.64 6 9 C5.34 8.34 4.68 7.68 4 7 C3.01 7 2.02 7 1 7 C-0.95216435 5.04783565 -1.84826645 3.46800047 -3 1 C-2.01 0.67 -1.02 0.34 0 0 Z " fill="#CD6340" transform="translate(70,23)"/>
<path d="M0 0 C1 1 1 1 1.0625 3.5625 C1.041875 4.366875 1.02125 5.17125 1 6 C-0.32 5.34 -1.64 4.68 -3 4 C-3.33 4.66 -3.66 5.32 -4 6 C-4.99 5.67 -5.98 5.34 -7 5 C-6.34 5 -5.68 5 -5 5 C-5 4.34 -5 3.68 -5 3 C-6.32 3.33 -7.64 3.66 -9 4 C-9 3.34 -9 2.68 -9 2 C-5.55892734 -0.29404844 -4.03160191 -0.26293056 0 0 Z " fill="#EBB952" transform="translate(57,20)"/>
<path d="M0 0 C3.875 0.875 3.875 0.875 5 2 C5.47058824 8.23529412 5.47058824 8.23529412 3.5 11.4375 C3.005 11.953125 2.51 12.46875 2 13 C1.34 12.67 0.68 12.34 0 12 C0 11.34 0 10.68 0 10 C-1.29572383 7.97543152 -2.6273318 5.97321053 -4 4 C-3.67 3.34 -3.34 2.68 -3 2 C-2.38125 2.825 -1.7625 3.65 -1.125 4.5 C-0.42375 5.325 0.2775 6.15 1 7 C1.66 7 2.32 7 3 7 C2.42547254 3.06924356 2.42547254 3.06924356 0 0 Z " fill="#D97F30" transform="translate(26,12)"/>
<path d="M0 0 C-0.99 0.33 -1.98 0.66 -3 1 C-3 1.66 -3 2.32 -3 3 C-4.65 3 -6.3 3 -8 3 C-8 3.99 -8 4.98 -8 6 C-6.35 6 -4.7 6 -3 6 C-6 8 -6 8 -8.125 7.625 C-8.74375 7.41875 -9.3625 7.2125 -10 7 C-10.33 7 -10.66 7 -11 7 C-11.33 6.01 -11.66 5.02 -12 4 C-11.34 4 -10.68 4 -10 4 C-9.67 3.01 -9.34 2.02 -9 1 C-2.63157895 -1.31578947 -2.63157895 -1.31578947 0 0 Z " fill="#BB2A21" transform="translate(67,61)"/>
<path d="M0 0 C1.65 0.33 3.3 0.66 5 1 C5.33 2.65 5.66 4.3 6 6 C2.7 6.33 -0.6 6.66 -4 7 C-4.33 5.35 -4.66 3.7 -5 2 C-3.68 2.33 -2.36 2.66 -1 3 C-0.67 2.01 -0.34 1.02 0 0 Z " fill="#F2CB5C" transform="translate(55,25)"/>
<path d="M0 0 C1.48206495 0.254496 2.96068615 0.52911762 4.4375 0.8125 C5.67306641 1.03873047 5.67306641 1.03873047 6.93359375 1.26953125 C7.95646484 1.63111328 7.95646484 1.63111328 9 2 C9.33 2.99 9.66 3.98 10 5 C10.66 5 11.32 5 12 5 C11.67 5.99 11.34 6.98 11 8 C10.67 7.67 10.34 7.34 10 7 C9.67 7.66 9.34 8.32 9 9 C7.35 8.67 5.7 8.34 4 8 C5.32 7.67 6.64 7.34 8 7 C8 6.01 8 5.02 8 4 C6.35 4 4.7 4 3 4 C3 3.34 3 2.68 3 2 C2.01 1.67 1.02 1.34 0 1 C0 0.67 0 0.34 0 0 Z " fill="#BA271B" transform="translate(31,60)"/>
<path d="M0 0 C0.66 0.66 1.32 1.32 2 2 C2.99 2 3.98 2 5 2 C4.54625 2.391875 4.0925 2.78375 3.625 3.1875 C1.72357081 5.30832487 0.93795972 7.33042235 0 10 C-0.66 9.67 -1.32 9.34 -2 9 C-2 8.01 -2 7.02 -2 6 C-2.66 6 -3.32 6 -4 6 C-3.6875 4.125 -3.6875 4.125 -3 2 C-2.01 1.34 -1.02 0.68 0 0 Z " fill="#BB2818" transform="translate(24,28)"/>
<path d="M0 0 C0.639375 0.165 1.27875 0.33 1.9375 0.5 C5.97586652 1.15932515 9.91807258 1.08003779 14 1 C14 1.33 14 1.66 14 2 C11.69 2 9.38 2 7 2 C7 2.66 7 3.32 7 4 C9.97 4 12.94 4 16 4 C16 4.33 16 4.66 16 5 C12.04 5 8.08 5 4 5 C4 4.34 4 3.68 4 3 C2.02 3 0.04 3 -2 3 C-1.34 2.67 -0.68 2.34 0 2 C0 1.34 0 0.68 0 0 Z " fill="#CA5425" transform="translate(39,14)"/>
<path d="M0 0 C0.66 0.33 1.32 0.66 2 1 C1.67 2.32 1.34 3.64 1 5 C1.99 5 2.98 5 4 5 C3.34 4.67 2.68 4.34 2 4 C2 3.34 2 2.68 2 2 C3.32 2.33 4.64 2.66 6 3 C6 4.65 6 6.3 6 8 C-0.15234375 7.4140625 -0.15234375 7.4140625 -2 7 C-2.33 6.34 -2.66 5.68 -3 5 C-2.34 4.34 -1.68 3.68 -1 3 C-0.67 2.01 -0.34 1.02 0 0 Z " fill="#BF3720" transform="translate(32,48)"/>
<path d="M0 0 C-3.41338353 3.14031285 -6.41462451 3.74525692 -11 4 C-11.66 3.34 -12.32 2.68 -13 2 C-8.3683343 -1.61848883 -5.49434694 -1.02436977 0 0 Z " fill="#D77B3E" transform="translate(64,31)"/>
<path d="M0 0 C0.66 0 1.32 0 2 0 C2 2.97 2 5.94 2 9 C-2.875 6.125 -2.875 6.125 -4 5 C-4.33 6.65 -4.66 8.3 -5 10 C-5.33 10 -5.66 10 -6 10 C-6 7.03 -6 4.06 -6 1 C-4.02 2.32 -2.04 3.64 0 5 C0 3.35 0 1.7 0 0 Z " fill="#DD8A30" transform="translate(49,4)"/>
<path d="M0 0 C0.66 0 1.32 0 2 0 C2 0.99 2 1.98 2 3 C3.32 2.67 4.64 2.34 6 2 C5.67 2.99 5.34 3.98 5 5 C6.32 5.33 7.64 5.66 9 6 C9.33 7.65 9.66 9.3 10 11 C9.34 11 8.68 11 8 11 C8 9.68 8 8.36 8 7 C6.68 7.33 5.36 7.66 4 8 C2.35 5.69 0.7 3.38 -1 1 C-0.67 0.67 -0.34 0.34 0 0 Z " fill="#BD2F1E" transform="translate(36,33)"/>
<path d="M0 0 C-0.33 0.66 -0.66 1.32 -1 2 C-3.0625 2.625 -3.0625 2.625 -5 3 C-4.95875 4.0725 -4.9175 5.145 -4.875 6.25 C-4.9885825 9.65747485 -5.21273364 11.20739631 -7 14 C-9.2169229 9.69656144 -9.3777959 6.65006115 -8 2 C-2.91891892 -1.45945946 -2.91891892 -1.45945946 0 0 Z " fill="#BA281F" transform="translate(56,62)"/>
<path d="M0 0 C1.32 0.33 2.64 0.66 4 1 C4 3.31 4 5.62 4 8 C2.35 8.33 0.7 8.66 -1 9 C-1 6 -1 6 1 3 C0.67 2.01 0.34 1.02 0 0 Z " fill="#F1CD68" transform="translate(52,48)"/>
<path d="M0 0 C0.66 0.33 1.32 0.66 2 1 C2 1.99 2 2.98 2 4 C2.66 4.33 3.32 4.66 4 5 C-2.75 7.125 -2.75 7.125 -5 6 C-4.67 4.35 -4.34 2.7 -4 1 C-3.01 1.33 -2.02 1.66 -1 2 C-1.66 2 -2.32 2 -3 2 C-3 2.66 -3 3.32 -3 4 C-2.01 4 -1.02 4 0 4 C0 2.68 0 1.36 0 0 Z " fill="#C2402C" transform="translate(65,49)"/>
<path d="M0 0 C2.31 0.33 4.62 0.66 7 1 C6.67 1.66 6.34 2.32 6 3 C4.68 2.67 3.36 2.34 2 2 C1.67 4.31 1.34 6.62 1 9 C2.32 9.33 3.64 9.66 5 10 C3.35 10 1.7 10 0 10 C-0.95024979 6.30458414 -0.95024979 3.69541586 0 0 Z " fill="#D67A34" transform="translate(36,81)"/>
<path d="M0 0 C0.33 0.66 0.66 1.32 1 2 C1.99 2 2.98 2 4 2 C4 2.66 4 3.32 4 4 C3.34 4 2.68 4 2 4 C2.33 5.32 2.66 6.64 3 8 C0.625 7.8125 0.625 7.8125 -2 7 C-3.3125 4.4375 -3.3125 4.4375 -4 2 C-2.68 1.34 -1.36 0.68 0 0 Z " fill="#E5B580" transform="translate(85,54)"/>
<path d="M0 0 C1.37562854 1.28965176 2.70766393 2.62689293 4 4 C4 4.66 4 5.32 4 6 C3.34 6 2.68 6 2 6 C2.33 6.99 2.66 7.98 3 9 C0.46475554 7.98590222 -0.77139002 7.38502734 -2.1875 5 C-2.455625 4.34 -2.72375 3.68 -3 3 C-3.33 2.34 -3.66 1.68 -4 1 C-2.68 1.33 -1.36 1.66 0 2 C0 1.34 0 0.68 0 0 Z " fill="#B71F1D" transform="translate(73,28)"/>
<path d="M0 0 C2.64 1.65 5.28 3.3 8 5 C8.33 4.01 8.66 3.02 9 2 C9.99 3.485 9.99 3.485 11 5 C9.68 6.32 8.36 7.64 7 9 C3.87386607 6.03839944 1.95216435 3.90432869 0 0 Z " fill="#D36F27" transform="translate(15,21)"/>
<path d="M0 0 C1.23556641 0.01740234 1.23556641 0.01740234 2.49609375 0.03515625 C3.32238281 0.04417969 4.14867188 0.05320312 5 0.0625 C5.63808594 0.07410156 6.27617188 0.08570312 6.93359375 0.09765625 C7.59359375 1.41765625 8.25359375 2.73765625 8.93359375 4.09765625 C7.3094063 4.17856596 5.6840763 4.2368062 4.05859375 4.28515625 C3.15367188 4.31996094 2.24875 4.35476562 1.31640625 4.390625 C0.13691406 4.24560547 0.13691406 4.24560547 -1.06640625 4.09765625 C-1.72640625 3.10765625 -2.38640625 2.11765625 -3.06640625 1.09765625 C-2.06640625 0.09765625 -2.06640625 0.09765625 0 0 Z " fill="#E1A86E" transform="translate(70.06640625,76.90234375)"/>
<path d="M0 0 C0.66 0.33 1.32 0.66 2 1 C2 1.66 2 2.32 2 3 C2.66 3 3.32 3 4 3 C4.33 2.34 4.66 1.68 5 1 C6 4 6 4 5.0625 6.1875 C4.5365625 7.0846875 4.5365625 7.0846875 4 8 C1 7 1 7 -0.6875 3.9375 C-1.120625 2.968125 -1.55375 1.99875 -2 1 C-1.34 0.67 -0.68 0.34 0 0 Z " fill="#E8AD4C" transform="translate(46,29)"/>
<path d="M0 0 C0 0.66 0 1.32 0 2 C3.96 2 7.92 2 12 2 C8 4 8 4 4 4 C3.175 4.061875 2.35 4.12375 1.5 4.1875 C-1.52738113 3.96044642 -2.7653341 2.98636969 -5 1 C-3 0 -3 0 0 0 Z " fill="#B51714" transform="translate(43,17)"/>
<path d="M0 0 C0 2.31 0 4.62 0 7 C-0.66 6.34 -1.32 5.68 -2 5 C-2.845625 4.67 -3.69125 4.34 -4.5625 4 C-7 3 -7 3 -8 1 C-2.25 -1.125 -2.25 -1.125 0 0 Z " fill="#EEC150" transform="translate(42,58)"/>
<path d="M0 0 C1.98 0 3.96 0 6 0 C6 3 6 3 5 5 C5.66 5.33 6.32 5.66 7 6 C6.01 6 5.02 6 4 6 C3.67 5.34 3.34 4.68 3 4 C2.01 4.33 1.02 4.66 0 5 C0 3.35 0 1.7 0 0 Z " fill="#EBB144" transform="translate(41,20)"/>
<path d="M0 0 C1.5 1.1875 1.5 1.1875 3 3 C3.1875 5.6875 3.1875 5.6875 3 8 C2.01 7.34 1.02 6.68 0 6 C0 6.66 0 7.32 0 8 C-0.99 8 -1.98 8 -3 8 C-2.45276317 4.62537285 -1.9451 2.91765 0 0 Z " fill="#EDC051" transform="translate(36,45)"/>
<path d="M0 0 C0.99 0 1.98 0 3 0 C3 1.32 3 2.64 3 4 C3.66 4.33 4.32 4.66 5 5 C4.01 6.485 4.01 6.485 3 8 C2.34 8 1.68 8 1 8 C0.26919734 6.02253397 -0.39421747 4.01927511 -1 2 C-0.67 1.34 -0.34 0.68 0 0 Z " fill="#EEBE55" transform="translate(41,40)"/>
<path d="M0 0 C2.375 0.3125 2.375 0.3125 5 1 C5.66 1.99 6.32 2.98 7 4 C5.68 4 4.36 4 3 4 C2.67 3.67 2.34 3.34 2 3 C-0.05396726 3.40929986 -0.05396726 3.40929986 -2 4 C-2 3.34 -2 2.68 -2 2 C-3.65 2.33 -5.3 2.66 -7 3 C-6.67 2.34 -6.34 1.68 -6 1 C-4.02 1 -2.04 1 0 1 C0 0.67 0 0.34 0 0 Z " fill="#D26D30" transform="translate(40,30)"/>
<path d="M0 0 C0.33 0.99 0.66 1.98 1 3 C-0.6875 4.125 -0.6875 4.125 -3 5 C-5.75 4.125 -5.75 4.125 -8 3 C-8 2.34 -8 1.68 -8 1 C-5.23735711 0.40267181 -2.83967231 0 0 0 Z " fill="#F5D86E" transform="translate(69,28)"/>
<path d="M0 0 C0.99 0 1.98 0 3 0 C3.33 0.99 3.66 1.98 4 3 C3.34 3 2.68 3 2 3 C2 7.62 2 12.24 2 17 C1.67 17 1.34 17 1 17 C0.90912109 15.62714844 0.90912109 15.62714844 0.81640625 14.2265625 C0.69072266 12.44378906 0.69072266 12.44378906 0.5625 10.625 C0.48128906 9.44164062 0.40007813 8.25828125 0.31640625 7.0390625 C0.18915064 4.08481099 0.18915064 4.08481099 -1 2 C-0.67 1.34 -0.34 0.68 0 0 Z " fill="#C0381B" transform="translate(18,37)"/>
<path d="M0 0 C2.97 0 5.94 0 9 0 C7.68 1.32 6.36 2.64 5 4 C2.525 3.01 2.525 3.01 0 2 C0 1.34 0 0.68 0 0 Z " fill="#C3432A" transform="translate(45,50)"/>
<path d="M0 0 C0.061875 0.61875 0.12375 1.2375 0.1875 1.875 C0.828919 4.27761141 0.828919 4.27761141 3.5625 5.25 C4.366875 5.4975 5.17125 5.745 6 6 C5.01 7.485 5.01 7.485 4 9 C2.35 7.68 0.7 6.36 -1 5 C-0.67 3.35 -0.34 1.7 0 0 Z " fill="#E5A53E" transform="translate(32,36)"/>
<path d="M0 0 C0.6875 1.75 0.6875 1.75 1 4 C0.04701223 5.36733028 -0.95374591 6.70264493 -2 8 C-2 8.99 -2 9.98 -2 11 C-2.66 10.67 -3.32 10.34 -4 10 C-4.625 7.4375 -4.625 7.4375 -5 5 C-4.01 4.67 -3.02 4.34 -2 4 C-0.79117904 1.99983534 -0.79117904 1.99983534 0 0 Z " fill="#E5AA5E" transform="translate(71,43)"/>
<path d="M0 0 C2 2 2 2 2 5 C2.99 4.67 3.98 4.34 5 4 C5.33 4.66 5.66 5.32 6 6 C3.69 6 1.38 6 -1 6 C-1.33 4.35 -1.66 2.7 -2 1 C-1.34 0.67 -0.68 0.34 0 0 Z " fill="#DA8331" transform="translate(34,23)"/>
<path d="M0 0 C0.33 1.98 0.66 3.96 1 6 C-0.65 5.67 -2.3 5.34 -4 5 C-4 3.68 -4 2.36 -4 1 C-2 0 -2 0 0 0 Z " fill="#BF3419" transform="translate(38,6)"/>
<path d="M0 0 C0.66 0.33 1.32 0.66 2 1 C4.09821215 0.60061233 4.09821215 0.60061233 6 0 C6.33 0.66 6.66 1.32 7 2 C5.02 2.33 3.04 2.66 1 3 C1 3.66 1 4.32 1 5 C0.01 5 -0.98 5 -2 5 C-2 4.01 -2 3.02 -2 2 C-1.34 2 -0.68 2 0 2 C0 1.34 0 0.68 0 0 Z " fill="#B8221E" transform="translate(53,75)"/>
<path d="M0 0 C0.33 0.99 0.66 1.98 1 3 C-0.9375 5.6875 -0.9375 5.6875 -3 8 C-3 7.34 -3 6.68 -3 6 C-3.66 6 -4.32 6 -5 6 C-4.34 4.35 -3.68 2.7 -3 1 C-2.34 1.33 -1.68 1.66 -1 2 C-0.67 1.34 -0.34 0.68 0 0 Z " fill="#D06E4B" transform="translate(78,58)"/>
<path d="M0 0 C2.64 0.33 5.28 0.66 8 1 C7.67 1.99 7.34 2.98 7 4 C6.01 4.33 5.02 4.66 4 5 C4 4.34 4 3.68 4 3 C2.68 2.67 1.36 2.34 0 2 C0 1.34 0 0.68 0 0 Z " fill="#DB8C4D" transform="translate(50,72)"/>
<path d="M0 0 C0.66 0 1.32 0 2 0 C2.33 0.66 2.66 1.32 3 2 C4.65 1.67 6.3 1.34 8 1 C8.33 1.66 8.66 2.32 9 3 C7.02 3.99 5.04 4.98 3 6 C0 2.25 0 2.25 0 0 Z " fill="#D16B36" transform="translate(42,54)"/>
<path d="M0 0 C1.65 1.32 3.3 2.64 5 4 C4.401875 4.268125 3.80375 4.53625 3.1875 4.8125 C1.02775192 5.98493467 -0.35790256 7.19369282 -2 9 C-2.33 8.34 -2.66 7.68 -3 7 C-2.34 7 -1.68 7 -1 7 C-0.67 4.69 -0.34 2.38 0 0 Z " fill="#DB8A3F" transform="translate(39,49)"/>
<path d="M0 0 C0.66 0 1.32 0 2 0 C1.67 1.98 1.34 3.96 1 6 C0.01 6 -0.98 6 -2 6 C-1.125 1.125 -1.125 1.125 0 0 Z " fill="#E4A453" transform="translate(61,36)"/>
<path d="M0 0 C1.32 0.99 2.64 1.98 4 3 C3.01 4.485 3.01 4.485 2 6 C1.01 6 0.02 6 -1 6 C-1.33 4.68 -1.66 3.36 -2 2 C-1.34 2 -0.68 2 0 2 C0 1.34 0 0.68 0 0 Z " fill="#E4A82D" transform="translate(12,55)"/>
<path d="M0 0 C0.598125 0.20625 1.19625 0.4125 1.8125 0.625 C1.1525 0.625 0.4925 0.625 -0.1875 0.625 C-0.1875 2.275 -0.1875 3.925 -0.1875 5.625 C-1.1775 5.295 -2.1675 4.965 -3.1875 4.625 C-2.5275 4.625 -1.8675 4.625 -1.1875 4.625 C-1.1875 3.965 -1.1875 3.305 -1.1875 2.625 C-2.5075 2.955 -3.8275 3.285 -5.1875 3.625 C-5.1875 2.965 -5.1875 2.305 -5.1875 1.625 C-2.1875 -0.375 -2.1875 -0.375 0 0 Z " fill="#E39F44" transform="translate(53.1875,20.375)"/>
<path d="M0 0 C1.32 0.33 2.64 0.66 4 1 C4.33 2.32 4.66 3.64 5 5 C4.01 5.33 3.02 5.66 2 6 C1.34 4.02 0.68 2.04 0 0 Z " fill="#D77D32" transform="translate(27,58)"/>
<path d="M0 0 C0.66 0 1.32 0 2 0 C3.5625 2.8125 3.5625 2.8125 5 6 C4.67 6.99 4.34 7.98 4 9 C0 4.5 0 4.5 0 0 Z " fill="#B10C12" transform="translate(37,43)"/>
<path d="M0 0 C0.66 0.33 1.32 0.66 2 1 C1.75 3.375 1.75 3.375 1 6 C-1.0625 7.3125 -1.0625 7.3125 -3 8 C-2.01 5.36 -1.02 2.72 0 0 Z " fill="#B51818" transform="translate(59,42)"/>
<path d="M0 0 C0.33 0.66 0.66 1.32 1 2 C0.67 2.66 0.34 3.32 0 4 C1.32 4.33 2.64 4.66 4 5 C3 6 3 6 -0.0625 6.0625 C-1.5165625 6.0315625 -1.5165625 6.0315625 -3 6 C-2.01 4.02 -1.02 2.04 0 0 Z " fill="#DA8A4E" transform="translate(82,21)"/>
<path d="M0 0 C0.99 0.66 1.98 1.32 3 2 C-3.4 5.07692308 -3.4 5.07692308 -6.4375 4.6875 C-6.953125 4.460625 -7.46875 4.23375 -8 4 C-6.02 3.67 -4.04 3.34 -2 3 C-2 2.34 -2 1.68 -2 1 C-1.34 0.67 -0.68 0.34 0 0 Z " fill="#D37347" transform="translate(62,74)"/>
<path d="M0 0 C4.455 0.99 4.455 0.99 9 2 C8.67 2.66 8.34 3.32 8 4 C6.35 4 4.7 4 3 4 C3 3.34 3 2.68 3 2 C2.01 1.67 1.02 1.34 0 1 C0 0.67 0 0.34 0 0 Z " fill="#B31113" transform="translate(31,60)"/>
</svg>
